<?xml version="1.0" encoding="utf-8"?>
<!-- Generator: Adobe Illustrator 19.0.0, SVG Export Plug-In . SVG Version: 6.00 Build 0)  -->
<svg version="1.1" id="Layer_1" xmlns="http://www.w3.org/2000/svg" xmlns:xlink="http://www.w3.org/1999/xlink" x="0px" y="0px"
	 viewBox="0 0 500 500" style="enable-background:new 0 0 500 500;" xml:space="preserve">
<style type="text/css">
	.st0{fill:#3E4345;}
	.st1{fill:#652B81;}
</style>
<g id="XMLID_1_">
	<path id="XMLID_10_" class="st0" d="M79.7,291.3v-80.6H67.5v81.1c0,19.1,12,29.5,29.6,27.4v-11.6C87.8,307.9,79.7,304.6,79.7,291.3
		z M133.7,309.1c-13.8,0-25.1-12.2-25.1-27.3c0-15.3,11.3-27.9,25.1-27.9c13.9,0,25.2,12.5,25.2,27.9
		C159,296.8,147.6,309.1,133.7,309.1z M133.7,242.2c-21.2,0-37.6,17.8-37.6,39.7c0,21.6,16.4,39.2,37.6,39.2
		c21.3,0,37.6-17.6,37.6-39.2C171.3,259.9,155.1,242.2,133.7,242.2z M320.4,244.1h-18.1l-34.1,33.7v-67.1h-12.3v108.5h12.3v-24.2
		l14.4-14l25.5,38.2h15l-31.5-47L320.4,244.1z M327.7,273.8c3.2-12.8,14.1-20.4,24.4-20.4c10.9,0,21,8.2,24.1,20.4H327.7z
		 M352.1,242.2c-20.8,0-37.6,17.8-37.6,39.5c0,22,16.8,39.2,38.3,39.2c17.3,0,30.1-9,35.3-25.1H375c-4.1,8.7-11.6,13.9-22.2,13.9
		c-12.3,0-24.2-9.2-25.8-24.8h62.9C390,258.2,371.4,242.2,352.1,242.2z M408.1,252.5v-8.5h-11.9v75.1h12.3v-43.4
		c0-15,11-21.9,24-21.1v-12.2C423.9,241.3,413.8,244.5,408.1,252.5z"/>
	<path id="XMLID_17_" class="st1" d="M212.4,242.2c-5.5,0-10.7,1.2-15.4,3.4l7.9,9.7c2.4-0.8,4.9-1.3,7.5-1.3
		c13.9,0,25.3,12.5,25.3,27.9c0,15-11.3,27.3-25.3,27.3c-13.8,0-25.1-12.2-25.1-27.3c0-9.2,4.1-17.4,10.3-22.4l-7.7-9.4
		c-9.2,7.2-15.1,18.8-15.1,31.9c0,21.6,16.4,39.2,37.6,39.2c21.3,0,37.6-17.6,37.6-39.2C250,259.9,233.7,242.2,212.4,242.2z
		 M191.6,228.3c0,3.1-1.3,5.9-3.4,7.8l5.4,6.6c4-3.5,6.5-8.7,6.5-14.4c0-4.2-1.4-8.2-3.7-11.3l-6.4,5.6
		C191,224.3,191.6,226.2,191.6,228.3z M180.8,239.2c-6,0-10.8-4.9-10.8-10.9c0-6,4.9-10.9,10.8-10.9c2.1,0,4.1,0.6,5.7,1.7l6.6-5.7
		c-3.3-2.8-7.6-4.5-12.3-4.5c-10.6,0-19.3,8.7-19.3,19.4c0,10.7,8.7,19.4,19.3,19.4c2.7,0,5.2-0.5,7.6-1.6l-5.8-7.1
		C182,239.1,181.4,239.2,180.8,239.2z M214.6,192.7c4.5,0,8.1,3.6,8.1,8.1c0,4.5-3.6,8.2-8.1,8.2c-2.3,0-4.4-1-5.9-2.6l-4.8,4.2
		c2.6,2.9,6.5,4.8,10.7,4.8c8,0,14.5-6.5,14.5-14.5c0-8-6.5-14.5-14.5-14.5c-4.7,0-8.9,2.3-11.5,5.8l6.3,2.6
		C210.7,193.5,212.6,192.7,214.6,192.7z M206.4,200.8c0-1.4,0.4-2.8,1.1-4l-5.9-2.4c-0.9,1.9-1.5,4.1-1.5,6.4c0,2.5,0.6,4.8,1.7,6.9
		l5.1-4.4C206.6,202.6,206.4,201.7,206.4,200.8z M184.2,198.3c4.2,0,7.7-2.7,9-6.4l-3.9-1.6c-0.7,2.2-2.7,3.8-5.1,3.8
		c-3,0-5.4-2.4-5.4-5.4c0-3,2.4-5.4,5.4-5.4c2.9,0,5.4,2.4,5.4,5.4l4.1,1.7c0.1-0.5,0.2-1,0.2-1.6c0-5.3-4.3-9.7-9.6-9.7
		c-5.3,0-9.7,4.4-9.7,9.7C174.6,194,178.9,198.3,184.2,198.3z"/>
</g>
</svg>
